<?xml version="1.0" ?><svg viewBox="0 0 64 64" xmlns="http://www.w3.org/2000/svg"><g id="Shell"><path d="M28.56,29l.19,0a1,1,0,0,0,.79-1.18L28,19.86a1,1,0,1,0-2,.39l1.58,7.9A1,1,0,0,0,28.56,29Z"/><path d="M23,30a1,1,0,0,0,.9.57,1.11,1.11,0,0,0,.43-.09,1,1,0,0,0,.47-1.34l-3.43-7.25A1,1,0,0,0,20,21.36a1,1,0,0,0-.48,1.33Z"/><path d="M16.61,37.45a1,1,0,0,0,.55.17,1,1,0,0,0,.83-.45,1,1,0,0,0-.27-1.38L12.79,32.5a1,1,0,0,0-1.11,1.66Z"/><path d="M33.25,28.93l.19,0a1,1,0,0,0,1-.8L36,20.25a1,1,0,1,0-2-.39l-1.58,7.89A1,1,0,0,0,33.25,28.93Z"/><path d="M37.67,30.43a1.11,1.11,0,0,0,.43.09A1,1,0,0,0,39,30l3.43-7.26A1,1,0,0,0,42,21.36a1,1,0,0,0-1.33.48L37.2,29.09A1,1,0,0,0,37.67,30.43Z"/><path d="M41.16,33a1,1,0,0,0,.66.25,1,1,0,0,0,.75-.34l4.77-5.38a1,1,0,1,0-1.5-1.32l-4.77,5.38A1,1,0,0,0,41.16,33Z"/><path d="M9.42,41.47l6.91,3.64-.1,3a4.62,4.62,0,0,0,5.51,4.68l3.63-.72a9.75,9.75,0,0,0,11.26,0l3.63.72a4.62,4.62,0,0,0,5.51-4.68l-.1-3,6.91-3.64a6.4,6.4,0,0,0,3.15-3.92,6.86,6.86,0,0,0-.64-5.34A6.26,6.26,0,0,0,54,30.85a6.86,6.86,0,0,0-1.84-6,6.29,6.29,0,0,0-2.29-1.43,7,7,0,0,0-3.27-4.57A6.43,6.43,0,0,0,43.7,18a7.11,7.11,0,0,0-4.32-3.44,6.6,6.6,0,0,0-3.13,0,7,7,0,0,0-10.5,0,6.56,6.56,0,0,0-3.12,0A7.1,7.1,0,0,0,18.3,18a6.46,6.46,0,0,0-2.94.82,7,7,0,0,0-3.27,4.57A6.29,6.29,0,0,0,9.8,24.81a6.86,6.86,0,0,0-1.84,6,6.26,6.26,0,0,0-1,1.36,6.86,6.86,0,0,0-.64,5.34A6.4,6.4,0,0,0,9.42,41.47Zm11.93,9.34a3,3,0,0,1-.6,0,2.61,2.61,0,0,1-2.52-2.7l.07-2,4,2.1a8.89,8.89,0,0,0,1.31,2.11ZM20.51,43a10.49,10.49,0,1,1,20.74,2.18l-1.89,1a9.46,9.46,0,0,0-16.72,0l-1.89-1A10.55,10.55,0,0,1,20.51,43Zm3.66,4.56a7.49,7.49,0,0,1,13.66,0A7.26,7.26,0,0,1,31,51.84,7.26,7.26,0,0,1,24.17,47.56Zm19.6.6a2.61,2.61,0,0,1-2.52,2.7,3,3,0,0,1-.6,0l-2.24-.45a8.89,8.89,0,0,0,1.31-2.11l4-2.1ZM8.64,33.21a4.55,4.55,0,0,1,1-1.23A1,1,0,0,0,10,31a5,5,0,0,1,1.2-4.75,4.65,4.65,0,0,1,2-1.12,1,1,0,0,0,.7-.81,5,5,0,0,1,2.41-3.75A4.67,4.67,0,0,1,18.77,20h.13a1,1,0,0,0,.92-.58,5.15,5.15,0,0,1,3.32-2.92,4.88,4.88,0,0,1,2.68.12,1,1,0,0,0,1.06-.34,5.09,5.09,0,0,1,8.24,0,1,1,0,0,0,1.06.34,4.88,4.88,0,0,1,2.68-.12,5.15,5.15,0,0,1,3.32,2.92,1,1,0,0,0,.92.58,4.6,4.6,0,0,1,2.54.56,5,5,0,0,1,2.41,3.75,1,1,0,0,0,.7.81,4.65,4.65,0,0,1,2,1.12A5,5,0,0,1,52,31a1,1,0,0,0,.33,1,4.55,4.55,0,0,1,1,1.23A4.93,4.93,0,0,1,53.81,37a4.38,4.38,0,0,1-2.16,2.71L43.43,44c0-.34.06-.68.06-1a12.49,12.49,0,0,0-25,0c0,.35,0,.69.06,1L10.35,39.7A4.38,4.38,0,0,1,8.19,37,4.93,4.93,0,0,1,8.64,33.21Z"/><path d="M44,37.17a1,1,0,0,0,.83.45,1,1,0,0,0,.55-.17l4.93-3.29a1,1,0,0,0-1.11-1.66l-4.93,3.29A1,1,0,0,0,44,37.17Z"/><path d="M19.43,33a1,1,0,0,0,1.41.09,1,1,0,0,0,.09-1.41l-4.77-5.38a1,1,0,1,0-1.49,1.32Z"/></g></svg>